<svg xmlns="http://www.w3.org/2000/svg" viewBox="160 -5 85 55">
  <style>
    .st0 { fill: #31348D; }
    .st1 { fill: #F6BA22; }
  </style>
  <path class="st0" d="M193,9.9c-14.1,0.4-25.4,9.1-25.1,19.5c0.3,10.4,12,18.5,26.1,18.1c14.1-0.4,25.4-9.1,25.1-19.5C218.8,17.6,207.1,9.5,193,9.9z M191.9,41.9c-11.9,0.3-21.7-5.6-21.9-13.3c-0.2-7.6,9.3-14.1,21.2-14.4c11.9-0.3,21.7,5.6,21.9,13.3C213.3,35.1,203.8,41.5,191.9,41.9z"/>
  <path class="st1" d="M183,27.7v2.2l56.8-26.1l0.1-3.2l-43.5,19.9l7.4-10.5l-6.7,3.3c0,0-6.9,8.4-10.4,11.3c-1,0.8-3.8,3.1-3.8,3.1"/>
</svg>