<?xml version="1.0" encoding="utf-8"?>
<!-- Generator: Adobe Illustrator 23.0.3, SVG Export Plug-In . SVG Version: 6.00 Build 0)  -->
<svg version="1.1" id="Capa_1" xmlns="http://www.w3.org/2000/svg" xmlns:xlink="http://www.w3.org/1999/xlink" x="0px" y="0px"
	 viewBox="0 0 244.8 50.9" style="enable-background:new 0 0 244.8 50.9;" xml:space="preserve">
<style type="text/css">
	.st0{fill:#31348D;}
	.st1{fill:#F6BA22;}
</style>
<g>
	<g>
		<g>
			<path class="st0" d="M25.7,3.8H1V46l25.7-0.1c13.1-1.3,23.2-10.2,23.2-21C49.8,13.9,39.3,4.8,25.7,3.8z M23.9,39.2L3.4,39.2V9.6
				h19.8c10.8,0.7,19.3,7.1,19.3,14.8C42.4,32,34.3,38.2,23.9,39.2z"/>
		</g>
	</g>
	<polygon class="st0" points="116.6,16.1 99.5,16.1 99.5,24.2 117.1,24.2 117.1,26.5 99.4,26.5 99.4,36.6 116.6,36.6 116.6,39.1 
		96.1,39.1 96.1,16.1 85.2,16.1 85.2,38.9 80.5,38.9 80.5,16.1 52.5,16.1 52.5,24 69,24 69,26.4 52.5,26.4 52.5,36.7 68.7,36.7 
		68.7,39.1 49.5,39.1 49.5,13.2 116.3,13.2 116.6,13.2 	"/>
	<path class="st0" d="M149.9,35.1c-3.4,3.2-8.8,5.3-14.8,5.3c-10.4,0-18.7-6.2-18.7-13.9s8.4-13.9,18.7-13.9c5.9,0,11.2,2,14.7,5.2
		l-2.1,1.5c-2.9-2.7-7.3-4.4-12.3-4.4c-8.7,0-15.8,5.2-15.8,11.7c0,6.4,7.1,11.7,15.8,11.7c5,0,9.5-1.8,12.4-4.5L149.9,35.1z"/>
	<polygon class="st0" points="147.9,13.1 177.3,13.1 177.3,15.8 164,15.8 164,39.1 159.8,39.1 159.7,15.9 147.8,15.9 	"/>
	<g>
		<g>
			<path class="st0" d="M193,9.9c-14.1,0.4-25.4,9.1-25.1,19.5c0.3,10.4,12,18.5,26.1,18.1c14.1-0.4,25.4-9.1,25.1-19.5
				C218.8,17.6,207.1,9.5,193,9.9z M191.9,41.9c-11.9,0.3-21.7-5.6-21.9-13.3c-0.2-7.6,9.3-14.1,21.2-14.4
				c11.9-0.3,21.7,5.6,21.9,13.3C213.3,35.1,203.8,41.5,191.9,41.9z"/>
		</g>
	</g>
	<path class="st1" d="M183,27.7v2.2l56.8-26.1l0.1-3.2l-43.5,19.9l7.4-10.5l-6.7,3.3c0,0-6.9,8.4-10.4,11.3c-1,0.8-3.8,3.1-3.8,3.1"
		/>
	<polyline class="st0" points="228.4,27.3 241.4,39.3 237.1,39.3 224.7,28.5 221.1,28.5 221.1,39.3 217.9,39.3 217.9,25.3 	"/>
	<g>
		<g>
			<path class="st0" d="M231.7,14l-13.8-0.1l0,14.3l14.1-0.8c6.2-0.5,9.1-2.8,9.1-6.5C241.2,17.3,241.6,14,231.7,14z M232.9,24.8
				h-10.4l0.1-9.1l8.7,0.2c5,0.2,7.2,1.1,7.2,4.5C238.5,23,237.8,24.4,232.9,24.8z"/>
		</g>
	</g>
	<g>
		<g>
			<path class="st1" d="M49.3,49.4v-7.7h1v6.8h3.8v0.9H49.3z"/>
			<path class="st1" d="M56.2,46.6c0-1,0.3-1.8,0.9-2.3c0.5-0.4,1.1-0.6,1.8-0.6c0.8,0,1.4,0.3,1.9,0.8c0.5,0.5,0.7,1.2,0.7,2.1
				c0,0.7-0.1,1.3-0.3,1.7s-0.5,0.7-0.9,1c-0.4,0.2-0.9,0.3-1.3,0.3c-0.8,0-1.4-0.3-1.9-0.8C56.4,48.2,56.2,47.5,56.2,46.6z
				 M57.2,46.6c0,0.7,0.2,1.2,0.5,1.6c0.3,0.4,0.7,0.5,1.2,0.5s0.9-0.2,1.2-0.5c0.3-0.4,0.5-0.9,0.5-1.6c0-0.7-0.2-1.2-0.5-1.6
				c-0.3-0.4-0.7-0.5-1.2-0.5c-0.5,0-0.9,0.2-1.2,0.5C57.3,45.3,57.2,45.9,57.2,46.6z"/>
			<path class="st1" d="M67.5,47.3l0.9,0.1c-0.1,0.6-0.4,1.1-0.8,1.5c-0.4,0.4-0.9,0.5-1.5,0.5c-0.8,0-1.4-0.3-1.8-0.8
				c-0.5-0.5-0.7-1.2-0.7-2.1c0-0.6,0.1-1.1,0.3-1.6c0.2-0.5,0.5-0.8,0.9-1c0.4-0.2,0.9-0.3,1.3-0.3c0.6,0,1.1,0.2,1.5,0.5
				c0.4,0.3,0.6,0.7,0.7,1.3l-0.9,0.1c-0.1-0.4-0.2-0.7-0.5-0.8c-0.2-0.2-0.5-0.3-0.8-0.3c-0.5,0-0.9,0.2-1.2,0.5
				c-0.3,0.3-0.4,0.9-0.4,1.6c0,0.8,0.1,1.3,0.4,1.6c0.3,0.3,0.7,0.5,1.1,0.5c0.4,0,0.7-0.1,0.9-0.3C67.2,48.2,67.4,47.8,67.5,47.3z
				"/>
			<path class="st1" d="M74.1,48.7c-0.4,0.3-0.7,0.5-1,0.6c-0.3,0.1-0.7,0.2-1,0.2c-0.6,0-1.1-0.2-1.4-0.5c-0.3-0.3-0.5-0.7-0.5-1.1
				c0-0.3,0.1-0.5,0.2-0.8c0.1-0.2,0.3-0.4,0.5-0.5c0.2-0.1,0.4-0.2,0.7-0.3c0.2,0,0.5-0.1,0.8-0.1c0.8-0.1,1.3-0.2,1.7-0.3
				c0-0.1,0-0.2,0-0.2c0-0.4-0.1-0.7-0.3-0.8c-0.2-0.2-0.6-0.3-1.1-0.3c-0.4,0-0.8,0.1-1,0.2c-0.2,0.2-0.4,0.4-0.5,0.8l-0.9-0.1
				c0.1-0.4,0.2-0.7,0.4-1c0.2-0.2,0.5-0.4,0.8-0.6c0.4-0.1,0.8-0.2,1.3-0.2c0.5,0,0.9,0.1,1.2,0.2c0.3,0.1,0.5,0.3,0.7,0.4
				c0.1,0.2,0.2,0.4,0.3,0.6c0,0.2,0,0.5,0,0.9V47c0,0.9,0,1.4,0.1,1.7c0,0.2,0.1,0.5,0.2,0.7h-1C74.2,49.2,74.2,49,74.1,48.7z
				 M74.1,46.6c-0.3,0.1-0.9,0.3-1.5,0.4c-0.4,0.1-0.7,0.1-0.8,0.2c-0.2,0.1-0.3,0.2-0.4,0.3c-0.1,0.1-0.1,0.3-0.1,0.5
				c0,0.3,0.1,0.5,0.3,0.6c0.2,0.2,0.5,0.3,0.8,0.3c0.4,0,0.7-0.1,1-0.2c0.3-0.2,0.5-0.4,0.6-0.7c0.1-0.2,0.2-0.5,0.2-0.9V46.6
				L74.1,46.6z"/>
			<path class="st1" d="M77.8,49.4v-7.7h0.9v7.7H77.8z"/>
			<path class="st1" d="M81.5,42.8v-1.1h0.9v1.1H81.5z M81.5,49.4v-5.6h0.9v5.6H81.5z"/>
			<path class="st1" d="M84.7,49.4v-0.8l3.6-4.1c-0.4,0-0.8,0-1.1,0h-2.3v-0.8h4.6v0.6l-3,3.5l-0.6,0.6c0.4,0,0.8,0,1.2,0h2.6v0.8
				H84.7z"/>
			<path class="st1" d="M95.5,48.7c-0.4,0.3-0.7,0.5-1,0.6c-0.3,0.1-0.7,0.2-1,0.2c-0.6,0-1.1-0.2-1.4-0.5c-0.3-0.3-0.5-0.7-0.5-1.1
				c0-0.3,0.1-0.5,0.2-0.8c0.1-0.2,0.3-0.4,0.5-0.5c0.2-0.1,0.4-0.2,0.7-0.3c0.2,0,0.5-0.1,0.8-0.1c0.8-0.1,1.3-0.2,1.7-0.3
				c0-0.1,0-0.2,0-0.2c0-0.4-0.1-0.7-0.3-0.8c-0.2-0.2-0.6-0.3-1.1-0.3c-0.4,0-0.8,0.1-1,0.2c-0.2,0.2-0.4,0.4-0.5,0.8l-0.9-0.1
				c0.1-0.4,0.2-0.7,0.4-1c0.2-0.2,0.5-0.4,0.8-0.6s0.8-0.2,1.3-0.2c0.5,0,0.9,0.1,1.2,0.2c0.3,0.1,0.5,0.3,0.7,0.4
				c0.1,0.2,0.2,0.4,0.3,0.6c0,0.2,0,0.5,0,0.9V47c0,0.9,0,1.4,0.1,1.7c0,0.2,0.1,0.5,0.2,0.7h-1C95.6,49.2,95.5,49,95.5,48.7z
				 M95.4,46.6c-0.3,0.1-0.9,0.3-1.5,0.4c-0.4,0.1-0.7,0.1-0.8,0.2c-0.2,0.1-0.3,0.2-0.4,0.3c-0.1,0.1-0.1,0.3-0.1,0.5
				c0,0.3,0.1,0.5,0.3,0.6c0.2,0.2,0.5,0.3,0.8,0.3c0.4,0,0.7-0.1,1-0.2c0.3-0.2,0.5-0.4,0.6-0.7c0.1-0.2,0.2-0.5,0.2-0.9L95.4,46.6
				L95.4,46.6z"/>
			<path class="st1" d="M102.7,49.4v-0.7c-0.4,0.6-0.9,0.8-1.6,0.8c-0.4,0-0.9-0.1-1.2-0.4c-0.4-0.2-0.7-0.6-0.9-1
				c-0.2-0.4-0.3-0.9-0.3-1.5c0-0.6,0.1-1.1,0.3-1.5c0.2-0.5,0.5-0.8,0.8-1c0.4-0.2,0.8-0.4,1.2-0.4c0.3,0,0.6,0.1,0.9,0.2
				c0.3,0.1,0.5,0.3,0.6,0.6v-2.8h0.9v7.7L102.7,49.4L102.7,49.4z M99.8,46.6c0,0.7,0.2,1.2,0.5,1.6c0.3,0.4,0.7,0.5,1.1,0.5
				c0.4,0,0.8-0.2,1.1-0.5c0.3-0.3,0.4-0.9,0.4-1.5c0-0.8-0.1-1.3-0.4-1.7c-0.3-0.4-0.7-0.5-1.1-0.5c-0.4,0-0.8,0.2-1.1,0.5
				C99.9,45.3,99.8,45.8,99.8,46.6z"/>
			<path class="st1" d="M106,46.6c0-1,0.3-1.8,0.9-2.3c0.5-0.4,1.1-0.6,1.8-0.6c0.8,0,1.4,0.3,1.9,0.8c0.5,0.5,0.7,1.2,0.7,2.1
				c0,0.7-0.1,1.3-0.3,1.7c-0.2,0.4-0.5,0.7-0.9,1c-0.4,0.2-0.9,0.3-1.3,0.3c-0.8,0-1.4-0.3-1.9-0.8C106.3,48.2,106,47.5,106,46.6z
				 M107,46.6c0,0.7,0.2,1.2,0.5,1.6c0.3,0.4,0.7,0.5,1.2,0.5c0.5,0,0.9-0.2,1.2-0.5c0.3-0.4,0.5-0.9,0.5-1.6c0-0.7-0.2-1.2-0.5-1.6
				c-0.3-0.4-0.7-0.5-1.2-0.5c-0.5,0-0.9,0.2-1.2,0.5C107.2,45.3,107,45.9,107,46.6z"/>
			<path class="st1" d="M113.7,49.4v-5.6h0.9v0.8c0.2-0.4,0.4-0.7,0.6-0.8c0.2-0.1,0.4-0.2,0.6-0.2c0.3,0,0.6,0.1,1,0.3l-0.3,0.9
				c-0.2-0.1-0.5-0.2-0.7-0.2c-0.2,0-0.4,0.1-0.6,0.2c-0.2,0.1-0.3,0.3-0.4,0.5c-0.1,0.3-0.2,0.7-0.2,1.1v2.9L113.7,49.4L113.7,49.4
				z"/>
			<path class="st1" d="M122.6,46.9l1-0.1c0,0.4,0.2,0.7,0.3,1c0.2,0.2,0.4,0.4,0.8,0.6c0.4,0.2,0.7,0.2,1.2,0.2
				c0.4,0,0.7-0.1,1-0.2c0.3-0.1,0.5-0.3,0.7-0.5c0.1-0.2,0.2-0.4,0.2-0.7c0-0.2-0.1-0.5-0.2-0.6c-0.1-0.2-0.4-0.3-0.7-0.5
				c-0.2-0.1-0.7-0.2-1.4-0.4c-0.7-0.2-1.2-0.3-1.5-0.5c-0.4-0.2-0.6-0.4-0.8-0.7c-0.2-0.3-0.3-0.6-0.3-1c0-0.4,0.1-0.8,0.3-1.1
				c0.2-0.3,0.5-0.6,1-0.8c0.4-0.2,0.9-0.3,1.4-0.3c0.6,0,1.1,0.1,1.5,0.3s0.8,0.5,1,0.8c0.2,0.4,0.4,0.8,0.4,1.2l-1,0.1
				c-0.1-0.5-0.2-0.9-0.5-1.1c-0.3-0.2-0.8-0.4-1.3-0.4c-0.6,0-1.1,0.1-1.3,0.3c-0.3,0.2-0.4,0.5-0.4,0.8c0,0.3,0.1,0.5,0.3,0.7
				c0.2,0.2,0.7,0.4,1.5,0.6c0.8,0.2,1.4,0.4,1.7,0.5c0.5,0.2,0.8,0.5,1,0.8c0.2,0.3,0.3,0.7,0.3,1.1c0,0.4-0.1,0.8-0.4,1.2
				c-0.2,0.4-0.6,0.6-1,0.8c-0.4,0.2-0.9,0.3-1.5,0.3c-0.7,0-1.3-0.1-1.8-0.3c-0.5-0.2-0.8-0.5-1.1-0.9
				C122.8,47.9,122.6,47.4,122.6,46.9z"/>
			<path class="st1" d="M135,48.7c-0.4,0.3-0.7,0.5-1,0.6c-0.3,0.1-0.7,0.2-1,0.2c-0.6,0-1.1-0.2-1.4-0.5c-0.3-0.3-0.5-0.7-0.5-1.1
				c0-0.3,0.1-0.5,0.2-0.8c0.1-0.2,0.3-0.4,0.5-0.5c0.2-0.1,0.4-0.2,0.7-0.3c0.2,0,0.5-0.1,0.8-0.1c0.8-0.1,1.3-0.2,1.7-0.3
				c0-0.1,0-0.2,0-0.2c0-0.4-0.1-0.7-0.3-0.8c-0.2-0.2-0.6-0.3-1.1-0.3c-0.4,0-0.8,0.1-1,0.2c-0.2,0.2-0.4,0.4-0.5,0.8l-0.9-0.1
				c0.1-0.4,0.2-0.7,0.4-1c0.2-0.2,0.5-0.4,0.8-0.6c0.4-0.1,0.8-0.2,1.3-0.2c0.5,0,0.9,0.1,1.2,0.2c0.3,0.1,0.5,0.3,0.7,0.4
				c0.1,0.2,0.2,0.4,0.3,0.6c0,0.2,0,0.5,0,0.9V47c0,0.9,0,1.4,0.1,1.7c0,0.2,0.1,0.5,0.2,0.7h-1C135.1,49.2,135,49,135,48.7z
				 M134.9,46.6c-0.3,0.1-0.9,0.3-1.5,0.4c-0.4,0.1-0.7,0.1-0.8,0.2c-0.2,0.1-0.3,0.2-0.4,0.3c-0.1,0.1-0.1,0.3-0.1,0.5
				c0,0.3,0.1,0.5,0.3,0.6s0.5,0.3,0.8,0.3c0.4,0,0.7-0.1,1-0.2c0.3-0.2,0.5-0.4,0.6-0.7c0.1-0.2,0.2-0.5,0.2-0.9L134.9,46.6
				L134.9,46.6z"/>
			<path class="st1" d="M140.7,48.5l0.1,0.8c-0.3,0.1-0.5,0.1-0.7,0.1c-0.3,0-0.6-0.1-0.8-0.2c-0.2-0.1-0.3-0.3-0.4-0.4
				c-0.1-0.2-0.1-0.6-0.1-1.1v-3.2h-0.7v-0.7h0.7v-1.4l0.9-0.6v2h1v0.7h-1v3.3c0,0.3,0,0.4,0.1,0.5c0,0.1,0.1,0.1,0.2,0.2
				c0.1,0,0.2,0.1,0.3,0.1C140.4,48.6,140.5,48.6,140.7,48.5z"/>
			<path class="st1" d="M146.7,47.6l1,0.1c-0.2,0.6-0.4,1-0.9,1.3c-0.4,0.3-1,0.5-1.6,0.5c-0.8,0-1.5-0.3-1.9-0.8
				c-0.5-0.5-0.7-1.2-0.7-2.1c0-0.9,0.2-1.7,0.7-2.2c0.5-0.5,1.1-0.8,1.9-0.8c0.7,0,1.4,0.3,1.8,0.8c0.5,0.5,0.7,1.2,0.7,2.1
				c0,0.1,0,0.1,0,0.3h-4.2c0,0.6,0.2,1.1,0.5,1.4c0.3,0.3,0.7,0.5,1.2,0.5c0.3,0,0.6-0.1,0.9-0.3S146.6,48,146.7,47.6z M143.6,46
				h3.1c0-0.5-0.2-0.8-0.4-1.1c-0.3-0.4-0.7-0.5-1.2-0.5c-0.4,0-0.8,0.1-1.1,0.4C143.8,45.2,143.7,45.6,143.6,46z"/>
			<path class="st1" d="M150.2,49.4v-7.7h0.9v7.7H150.2z"/>
			<path class="st1" d="M153.9,42.8v-1.1h0.9v1.1H153.9z M153.9,49.4v-5.6h0.9v5.6H153.9z"/>
			<path class="st1" d="M159.6,48.5l0.1,0.8c-0.3,0.1-0.5,0.1-0.7,0.1c-0.3,0-0.6-0.1-0.8-0.2s-0.3-0.3-0.4-0.4
				c-0.1-0.2-0.1-0.6-0.1-1.1v-3.2H157v-0.7h0.7v-1.4l0.9-0.6v2h1v0.7h-1v3.3c0,0.3,0,0.4,0,0.5c0,0.1,0.1,0.1,0.2,0.2
				c0.1,0,0.2,0.1,0.3,0.1C159.3,48.6,159.5,48.6,159.6,48.5z"/>
			<path class="st1" d="M165.5,48.7c-0.4,0.3-0.7,0.5-1,0.6c-0.3,0.1-0.7,0.2-1,0.2c-0.6,0-1.1-0.2-1.4-0.5
				c-0.3-0.3-0.5-0.7-0.5-1.1c0-0.3,0.1-0.5,0.2-0.8c0.1-0.2,0.3-0.4,0.5-0.5c0.2-0.1,0.4-0.2,0.7-0.3c0.2,0,0.5-0.1,0.8-0.1
				c0.8-0.1,1.3-0.2,1.7-0.3c0-0.1,0-0.2,0-0.2c0-0.4-0.1-0.7-0.3-0.8c-0.2-0.2-0.6-0.3-1.1-0.3c-0.4,0-0.8,0.1-1,0.2
				s-0.4,0.4-0.5,0.8l-0.9-0.1c0.1-0.4,0.2-0.7,0.4-1c0.2-0.2,0.5-0.4,0.8-0.6c0.4-0.1,0.8-0.2,1.3-0.2c0.5,0,0.9,0.1,1.2,0.2
				c0.3,0.1,0.5,0.3,0.7,0.4c0.1,0.2,0.2,0.4,0.3,0.6c0,0.2,0,0.5,0,0.9V47c0,0.9,0,1.4,0.1,1.7c0,0.2,0.1,0.5,0.2,0.7h-1
				C165.6,49.2,165.5,49,165.5,48.7z M165.4,46.6c-0.3,0.1-0.9,0.3-1.5,0.4c-0.4,0.1-0.7,0.1-0.8,0.2c-0.2,0.1-0.3,0.2-0.4,0.3
				c-0.1,0.1-0.1,0.3-0.1,0.5c0,0.3,0.1,0.5,0.3,0.6s0.5,0.3,0.8,0.3c0.4,0,0.7-0.1,1-0.2c0.3-0.2,0.5-0.4,0.6-0.7
				c0.1-0.2,0.2-0.5,0.2-0.9L165.4,46.6L165.4,46.6z"/>
			<path class="st1" d="M169.1,49.4v-7.7h0.9v7.7H169.1z"/>
		</g>
	</g>
</g>
</svg>
